<?xml version="1.0" encoding="utf-8"?>
<!-- Generator: Adobe Illustrator 25.1.0, SVG Export Plug-In . SVG Version: 6.00 Build 0)  -->
<svg version="1.1" id="圖層_1" xmlns="http://www.w3.org/2000/svg" xmlns:xlink="http://www.w3.org/1999/xlink" x="0px" y="0px"
	 viewBox="0 0 100 100" style="enable-background:new 0 0 100 100;" xml:space="preserve">
<g>
	<path d="M59.8,121.9c0-0.2,1.1-4.3,0.4-8.1c-0.6-3.7,0.1-5.3,0.4-5.7c0.6-0.6,0.9-1.6,1-2.3c0.8-0.4,1.7-1.1,2.5-2.4
		c1.2-1.6,0.9-3.4-0.7-4.7c-0.2-0.2-0.4-0.3-0.6-0.4c-0.4-5.2-2.2-33.5-2.5-37.2c5.8-7.3,7.4-16.4,7-22.4c-0.1-2.2-0.9-3.7-2.3-4.4
		c-1.7-1-3.9-0.5-5.1,0c-0.7-1.3-1.7-2.1-2.9-2.5c-1.1-0.3-2.3-0.1-3.2,0.2c0.8-4,1.1-9.1,1.4-13.6c0.2-2.2,0.3-4.2,0.5-6.1
		c0.4-3.7-0.9-5-2.1-5.3c-1.7-0.6-3.9,0.8-4.8,2.3c-1.1,1.9-1.5,6.3-2,11.3c-0.1,1.4-0.3,2.7-0.4,4.1c-0.2,2.1-0.3,4.1-0.4,5.6
		c0,0.4,0,0.8-0.1,1.2c-0.8-2.1-1.9-5.4-2.8-8.1c-0.7-2.2-1.5-4.5-2.1-6.2c-1.3-3.6-2.7-5.4-4.5-5.8c-1-0.2-2.1,0.2-2.9,1.1
		c-2.1,2.3-0.6,8.1,0.1,10.5c0.8,2.8,2.8,8.4,4.5,13.2c-0.7-0.7-1.5-1.2-2.2-1.3c-0.8-0.1-1.5,0.2-2,0.8c-2.3,2.6-1.8,6.7,1.5,12.1
		c2.1,3.4,4.6,6.3,5.2,6.9c3.1,8.9,1.3,21-0.1,29.9c-0.2,1.1-0.3,2.1-0.5,3c-0.8,0.2-2,0.6-2.6,1.7c-0.5,1-0.4,2.1,0.3,3.4
		c-0.3,1,0,2.5,0.5,4.2c0.2,0.9,0.5,1.7,0.5,2.2c0.1,2-1.8,7.8-2.6,9.9c-0.1,0.4,0,0.8,0.3,1.1c0.1,0.1,0.2,0.1,0.3,0.2
		c0.5,0.2,1.1-0.1,1.3-0.6c0.3-0.8,2.8-7.9,2.7-10.6c0-0.7-0.3-1.7-0.5-2.7c-0.1-0.3-0.2-0.7-0.3-1.1c0.3,0.3,0.6,0.5,0.9,0.8
		c4.4,3.6,12.2,8,14.8,9l0.4,0.1c1.2,0.4,2.2,0.8,3.3,0.9c-0.1,0.2-0.2,0.4-0.3,0.5c-1.2,1.2-1.5,4-0.9,7.4c0.6,3.4-0.4,7.2-0.4,7.2
		c-0.1,0.4,0,0.8,0.3,1c0.1,0.1,0.2,0.2,0.4,0.2C59.1,122.7,59.6,122.4,59.8,121.9z M42.6,54c0-0.1-0.1-0.2-0.2-0.3
		c-3-3.3-10.2-12.7-6.8-16.6c0.1-0.1,0.2-0.1,0.2-0.1c1.2,0.2,3.7,3.9,5.4,7.3c0.2,0.5,0.8,0.7,1.3,0.5s0.7-0.8,0.6-1.3
		c-0.1-0.2-5.7-15.8-7.3-21c-1.2-4-1.4-7.6-0.6-8.5c0.4-0.4,0.7-0.6,1.1-0.5c0.3,0.1,1.6,0.6,3,4.5c0.6,1.8,1.4,4,2.1,6.2
		c3.4,10.2,3.9,11.1,4.9,11.3c0.4,0.1,0.7,0,1-0.3c0.7-0.6,0.8-1.8,0.9-4.7c0.1-1.5,0.2-3.4,0.4-5.5c0.1-1.4,0.3-2.8,0.4-4.2
		c0.4-4.4,0.8-9,1.7-10.5c0.5-0.9,1.8-1.7,2.4-1.4c0.5,0.2,0.9,1.1,0.7,3.3c-0.2,1.8-0.3,3.9-0.5,6.1c-0.4,5.2-0.8,11.2-1.8,15.3
		c-0.1,0.4,0.1,0.8,0.4,1.1c0.3,0.2,0.8,0.2,1.1,0c0,0,1.8-1.3,3.5-0.8c0.9,0.2,1.6,1,2.1,2.2c0.1,0.3,0.3,0.5,0.6,0.6
		c0.3,0.1,0.6,0.1,0.8,0c0.7-0.3,2.9-1.2,4.2-0.4c0.8,0.4,1.2,1.4,1.3,2.8c0.4,5.8-1.2,14.4-6.8,21.4c-0.2,0.2-0.2,0.4-0.2,0.7
		c0.1,1.3,1.8,28.7,2.4,36.4c-0.4-0.1-0.7-0.2-0.9-0.3l-17.6-9c0.1-1,0.3-2,0.5-3C44.1,75.9,46,63.3,42.6,54z M56.8,103.5l-0.4-0.2
		c-2.4-0.9-10.1-5.2-14.3-8.6c-1.6-1.3-2.2-2.1-2.5-2.6c-0.3-0.5-0.6-1.2-0.3-1.6c0.2-0.5,1-0.7,1.6-0.8L59,98.9
		c0.1,0,0.1,0.1,0.2,0.1c0,0,1.8,0.5,2.9,1.4c0.9,0.7,0.8,1.3,0.3,2c-0.8,1.1-1.4,1.7-2.1,1.9c0,0-0.1,0-0.1,0
		C59.4,104.4,58.4,104.1,56.8,103.5z"/>
</g>
</svg>
