<?xml version="1.0" encoding="utf-8"?>
<!-- Generator: Adobe Illustrator 25.1.0, SVG Export Plug-In . SVG Version: 6.00 Build 0)  -->
<svg version="1.1" id="圖層_1" xmlns="http://www.w3.org/2000/svg" xmlns:xlink="http://www.w3.org/1999/xlink" x="0px" y="0px"
	 viewBox="0 0 100 100" style="enable-background:new 0 0 100 100;" xml:space="preserve">
<g>
	<path d="M51.7,114.9c0-0.1,1.7-6.7,3.5-10.7c0.8-1.9,0.9-3.4,1-4.8c0.1-1.7,0.1-3.3,1.7-5.8c0-0.1,0.1-0.1,0.1-0.2
		c0.7-0.4,1.3-0.7,1.8-1.1c2.5-2.3,1.4-4.3,0.8-5.1c-0.9-1.1-2.2-1.8-2.4-1.9c-0.2-0.1-0.3-0.1-0.5-0.1l-2,0.2
		c-1.5-19.1-0.4-33.8,3.3-42.7c2.2-1.9,15.2-13.5,13.6-20c-0.4-1.6-1.5-2.7-3.4-3.4c0.7-2.2,1.1-5.4-1.5-7.1c-1-0.6-2.1-0.9-3.2-0.6
		C63,11.9,61.7,13,60.8,14c-0.5-1.6-1.6-3.3-4-3.9c-2.6-0.6-4.4,1-5.6,2.8c-0.1-0.5-0.2-1-0.4-1.3c-0.7-1.4-2.6-2.7-4.9-2.5
		c-1.3,0.1-3.3,0.8-5,3.9c-0.3-0.5-0.6-0.9-1.1-1.1c-1.4-0.5-3.2-0.3-4.7,0.6c-2.1,1.3-3.4,3.6-3.7,6.5c-1,7.9-1.5,15.9,2.8,26.3
		c0,2.9-0.1,35.2-0.7,42.2c-1.5-0.1-4.2,0.1-5.5,1.6c-0.5,0.6-1,1.7-0.4,3.5c0.4,1.3,0.9,2.3,1.5,3c0.3,0.4,0.6,0.7,0.9,0.9
		c1,1.7,3.1,6.2,1.9,8.8c-1.9,3.9-2.1,8.8-2.1,9c0,0.2,0.1,0.5,0.2,0.6c0.2,0.2,0.5,0.4,0.8,0.4c0.6,0,1-0.4,1-1
		c0,0,0.1-4.7,1.9-8.2c1.3-2.7,0.2-6.3-0.8-8.6c0.9,0.1,1.8,0.1,2.8,0.1l0.5,0c3,0,12.8-1.3,19-3.4c-0.8,1.9-0.9,3.4-0.9,4.8
		c0,1.3-0.1,2.5-0.8,4.1c-1.8,4.1-3.5,10.7-3.6,11c-0.1,0.3,0,0.6,0.2,0.9c0.1,0.2,0.3,0.3,0.5,0.4C51,115.8,51.6,115.5,51.7,114.9z
		 M36.1,44.9c-4.2-10.1-3.7-17.8-2.8-25.5c0.3-2.3,1.3-4.1,2.8-5c1.2-0.7,2.3-0.7,2.9-0.5c0.3,0.2,0.6,1.4,0.7,2.5
		c0,0.5,0.4,0.9,0.9,0.9c0.5,0,0.9-0.3,1.1-0.7c1-3.3,2.5-5.1,4.4-5.3c1.3-0.1,2.5,0.7,2.9,1.4c0.3,0.6,0.4,2.8,0.4,4.5
		c0,0.5,0.4,0.9,0.9,1c0.5,0.1,1-0.2,1.1-0.7c0-0.1,1.8-6.1,5-5.3c3.2,0.8,2.7,4.1,2.7,4.5c-0.1,0.5,0.2,0.9,0.6,1.1
		c0.5,0.2,1,0,1.2-0.4c0.5-0.9,2.3-3.3,4.1-3.7c0.6-0.1,1.1,0,1.6,0.3c1.8,1.2,1.1,4,0.4,5.7l-5.5,8.6c-0.3,0.5-0.2,1.1,0.3,1.4
		c0.5,0.3,1.1,0.2,1.4-0.3l4.4-6.9c0.2-0.1,0.4-0.2,0.5-0.4c0-0.1,0.2-0.3,0.4-0.7c1.3,0.4,2,1.1,2.2,2c1.1,4.7-9.1,14.7-13.1,18.2
		c-0.1,0.1-0.2,0.2-0.3,0.4c-4,9.3-5.2,24-3.6,43.9l-18.1,1.9c0.6-8,0.7-40.9,0.7-42.4C36.2,45.1,36.1,45,36.1,44.9z M36.2,96
		l-0.5,0c-2.7,0-3.9-0.1-5-1.4c-0.4-0.6-0.8-1.4-1.2-2.4c-0.4-1.1,0-1.5,0.1-1.6c0.8-1,3.5-1,4.7-0.8c0.1,0,0.2,0,0.2,0l20.3-2.2
		c0,0,0,0,0,0c0,0,0,0,0,0l2.7-0.3c0.3,0.2,1,0.6,1.4,1.1c0.3,0.4,0.8,1.1-0.6,2.4C55.2,93.7,40,96,36.2,96z"/>
</g>
</svg>
